<svg width="23" height="23" viewBox="0 0 23 23" fill="none" xmlns="http://www.w3.org/2000/svg">
<path d="M2.35749 6.38835C2.47343 5.88033 2.75844 5.42673 3.16585 5.10185C3.57325 4.77697 4.07891 4.60006 4.59999 4.6001H18.4C18.9211 4.60006 19.4267 4.77697 19.8341 5.10185C20.2415 5.42673 20.5265 5.88033 20.6425 6.38835L11.5 11.9754L2.35749 6.38835ZM2.29999 7.70126V15.8711L8.97382 11.779L2.29999 7.70222V7.70126ZM10.0759 12.4546L2.5204 17.0853C2.70706 17.4788 3.00157 17.8112 3.3697 18.044C3.73783 18.2767 4.16445 18.4002 4.59999 18.4001H18.4C18.8357 18.4002 19.2624 18.2767 19.6306 18.0437C19.9987 17.8108 20.2931 17.4781 20.4796 17.0843L12.9241 12.4536L11.5 13.3238L10.0759 12.4536V12.4546ZM14.0271 11.7809L20.7 15.8701V7.70126L14.0271 11.779V11.7809Z" fill="#D9D9D9"/>
</svg>
