<svg width="28" height="28" viewBox="0 0 28 28" fill="none" xmlns="http://www.w3.org/2000/svg">
<path d="M3.23753 25.9535C3.08065 25.9532 2.92537 25.922 2.78056 25.8617C2.63575 25.8013 2.50426 25.713 2.39359 25.6019C2.28292 25.4907 2.19525 25.3588 2.13559 25.2137C2.07594 25.0686 2.04546 24.9131 2.0459 24.7563V2.32407C2.0459 1.66394 2.57965 1.12793 3.23753 1.12793H25.681C26.3378 1.12793 26.8715 1.66394 26.8715 2.3252V24.7574C26.8715 25.4187 26.3378 25.9547 25.681 25.9547H3.2364L3.23753 25.9535Z" stroke="#D9D9D9" stroke-width="1.46392" stroke-linecap="round" stroke-linejoin="round"/>
<path fill-rule="evenodd" clip-rule="evenodd" d="M22.7302 10.0932H19.9836C19.2219 10.0932 18.6047 10.7105 18.6047 11.4722V14.2312H22.7313L22.1265 18.3681H18.6058V25.9545H14.0672V18.3681H10.3208V14.2301H14.0187L14.0672 10.3042L14.0537 8.89709C14.049 8.42163 14.1387 7.94998 14.3175 7.50939C14.4963 7.06881 14.7607 6.66804 15.0953 6.33026C15.4299 5.99247 15.8282 5.72438 16.2671 5.54147C16.706 5.35856 17.1768 5.26448 17.6523 5.26465H22.7302V10.0921V10.0932Z" fill="#D9D9D9"/>
</svg>
