<svg width="193" height="35" viewBox="0 0 193 35" fill="none" xmlns="http://www.w3.org/2000/svg">
<path d="M22.6252 34.057V0.667785H28.9214V34.057H22.6252Z" fill="white"/>
<path d="M32.8171 34.057V0.667785H44.5033L50.2749 29.7641H51.1335L56.9051 0.667785H68.5913V34.057H62.4858V5.29458H61.6273L55.9034 34.057H45.505L39.7812 5.29458H38.9226V34.057H32.8171Z" fill="white"/>
<path d="M72.4948 34.057V0.667785H78.791V34.057H72.4948Z" fill="white"/>
<path d="M94.2298 34.7248C91.9403 34.7248 89.8574 34.216 87.9813 33.1984C86.1369 32.1491 84.6583 30.6386 83.5453 28.667C82.4641 26.6637 81.9235 24.231 81.9235 21.3691V13.3557C81.9235 9.06279 83.1319 5.77157 85.5486 3.48202C87.9654 1.16067 91.2407 0 95.3746 0C99.4767 0 102.641 1.09708 104.867 3.29123C107.124 5.45358 108.253 8.39501 108.253 12.1155V12.3063H102.052V11.9247C102.052 10.7482 101.798 9.68288 101.289 8.7289C100.812 7.77492 100.081 7.02764 99.0951 6.48705C98.1094 5.91467 96.8692 5.62847 95.3746 5.62847C93.1487 5.62847 91.3997 6.31216 90.1277 7.67953C88.8558 9.04689 88.2198 10.9072 88.2198 13.2603V21.4645C88.2198 23.7859 88.8558 25.662 90.1277 27.093C91.3997 28.4922 93.1805 29.1917 95.47 29.1917C97.7596 29.1917 99.429 28.5876 100.478 27.3792C101.528 26.1708 102.052 24.6444 102.052 22.8001V22.3231H94.1344V16.9808H108.253V34.057H102.434V30.8612H101.575C101.353 31.4018 100.987 31.9742 100.478 32.5784C100.001 33.1825 99.27 33.6913 98.2842 34.1047C97.2985 34.5181 95.947 34.7248 94.2298 34.7248Z" fill="white"/>
<path d="M111.884 34.057V0.667785H126.384C128.483 0.667785 130.311 1.03348 131.87 1.76486C133.428 2.49624 134.636 3.52972 135.495 4.86529C136.353 6.20086 136.782 7.77492 136.782 9.58748V10.1599C136.782 12.1632 136.306 13.785 135.352 15.0252C134.398 16.2653 133.221 17.1716 131.822 17.744V18.6026C133.094 18.6662 134.08 19.1114 134.779 19.9381C135.479 20.7331 135.829 21.7984 135.829 23.134V34.057H129.532V24.0403C129.532 23.2771 129.326 22.657 128.912 22.18C128.531 21.703 127.879 21.4645 126.957 21.4645H118.18V34.057H111.884ZM118.18 15.7406H125.716C127.211 15.7406 128.372 15.3432 129.198 14.5482C130.057 13.7214 130.486 12.6402 130.486 11.3046V10.8277C130.486 9.49208 130.073 8.42681 129.246 7.63183C128.419 6.80505 127.243 6.39165 125.716 6.39165H118.18V15.7406Z" fill="white"/>
<path d="M139.637 34.057V0.667785H161.101V6.39165H145.933V14.3574H159.766V20.0812H145.933V28.3332H161.387V34.057H139.637Z" fill="white"/>
<path d="M163.663 34.057V0.667785H169.959V34.057H163.663Z" fill="white"/>
<path d="M4.78073 24.7612V24.0175L6.19725 22.9551V18.5108L0 20.3346V19.3076L6.19725 15.6601V11.4813C6.19725 11.2334 6.28283 11.0239 6.45399 10.8528C6.62515 10.6816 6.83468 10.596 7.08257 10.596C7.33046 10.596 7.53998 10.6816 7.71115 10.8528C7.88231 11.0239 7.96789 11.2334 7.96789 11.4813V15.6601L14.1651 19.3076V20.3346L7.96789 18.5108V22.9551L9.3844 24.0175V24.7612L7.08257 24.106L4.78073 24.7612Z" fill="white"/>
<path d="M183.616 24.7612V24.0175L185.032 22.9551V18.5108L178.835 20.3346V19.3076L185.032 15.6601V11.4813C185.032 11.2334 185.118 11.0239 185.289 10.8528C185.46 10.6816 185.67 10.596 185.917 10.596C186.165 10.596 186.375 10.6816 186.546 10.8528C186.717 11.0239 186.803 11.2334 186.803 11.4813V15.6601L193 19.3076V20.3346L186.803 18.5108V22.9551L188.219 24.0175V24.7612L185.917 24.106L183.616 24.7612Z" fill="white"/>
</svg>
