<svg width="34" height="34" viewBox="0 0 34 34" fill="none" xmlns="http://www.w3.org/2000/svg">
<path d="M23.8496 4.20898H9.82042C8.33211 4.20898 6.90476 4.80021 5.85236 5.85261C4.79997 6.905 4.20874 8.33236 4.20874 9.82067V23.8499C4.20874 25.3382 4.79997 26.7655 5.85236 27.8179C6.90476 28.8703 8.33211 29.4616 9.82042 29.4616H23.8496C25.3379 29.4616 26.7653 28.8703 27.8177 27.8179C28.8701 26.7655 29.4613 25.3382 29.4613 23.8499V9.82067C29.4613 8.33236 28.8701 6.905 27.8177 5.85261C26.7653 4.80021 25.3379 4.20898 23.8496 4.20898Z" stroke="#D9D9D9" stroke-width="1.46392" stroke-linejoin="round"/>
<path d="M16.8351 22.4468C18.3234 22.4468 19.7507 21.8555 20.8031 20.8031C21.8555 19.7507 22.4468 18.3234 22.4468 16.8351C22.4468 15.3468 21.8555 13.9194 20.8031 12.867C19.7507 11.8146 18.3234 11.2234 16.8351 11.2234C15.3468 11.2234 13.9194 11.8146 12.867 12.867C11.8146 13.9194 11.2234 15.3468 11.2234 16.8351C11.2234 18.3234 11.8146 19.7507 12.867 20.8031C13.9194 21.8555 15.3468 22.4468 16.8351 22.4468V22.4468Z" stroke="#D9D9D9" stroke-width="2.10438" stroke-linejoin="round"/>
<path d="M24.5511 10.5217C24.9232 10.5217 25.28 10.3739 25.5431 10.1108C25.8062 9.84766 25.954 9.49082 25.954 9.11874C25.954 8.74666 25.8062 8.38983 25.5431 8.12673C25.28 7.86363 24.9232 7.71582 24.5511 7.71582C24.179 7.71582 23.8222 7.86363 23.5591 8.12673C23.296 8.38983 23.1482 8.74666 23.1482 9.11874C23.1482 9.49082 23.296 9.84766 23.5591 10.1108C23.8222 10.3739 24.179 10.5217 24.5511 10.5217Z" fill="#D9D9D9"/>
</svg>
