<svg width="23" height="23" viewBox="0 0 23 23" fill="none" xmlns="http://www.w3.org/2000/svg">
<path fill-rule="evenodd" clip-rule="evenodd" d="M4.17451 2.52928C4.38405 2.31999 4.63566 2.15762 4.91269 2.05293C5.18971 1.94824 5.48582 1.90361 5.7814 1.922C6.07698 1.9404 6.36527 2.0214 6.62718 2.15963C6.88909 2.29786 7.11863 2.49017 7.3006 2.72382L9.4511 5.48669C9.64557 5.73678 9.78063 6.02782 9.84604 6.33779C9.91146 6.64777 9.90552 6.96856 9.82868 7.2759L9.17318 9.89982C9.13937 10.0358 9.14127 10.1782 9.17872 10.3132C9.21616 10.4482 9.28787 10.5712 9.38689 10.6703L12.329 13.6124C12.4282 13.7118 12.5516 13.7838 12.687 13.8212C12.8224 13.8587 12.9652 13.8604 13.1014 13.8261L15.7234 13.1716C16.0308 13.0945 16.3517 13.0884 16.6619 13.1536C16.972 13.2189 17.2632 13.3538 17.5136 13.5482L20.2755 15.6977C20.5096 15.8795 20.7024 16.1091 20.841 16.3711C20.9796 16.6332 21.0609 16.9217 21.0794 17.2176C21.0978 17.5135 21.0532 17.8099 20.9483 18.0872C20.8434 18.3644 20.6807 18.6162 20.471 18.8257L19.2318 20.0639C18.3454 20.9504 17.021 21.3394 15.7857 20.9053C12.6248 19.793 9.75485 17.9833 7.38876 15.6105C5.01593 13.2445 3.20626 10.3745 2.09397 7.21361C1.65985 5.98024 2.04893 4.65486 2.93539 3.76744L4.17451 2.53024V2.52928Z" fill="#D9D9D9"/>
</svg>
