<svg width="23" height="23" viewBox="0 0 23 23" fill="none" xmlns="http://www.w3.org/2000/svg">
<path d="M18.2093 4.7034C17.3306 3.81641 16.2842 3.1132 15.131 2.63474C13.9778 2.15628 12.7409 1.91214 11.4924 1.91656C6.26177 1.91656 1.99815 6.17923 1.99335 11.4117C1.99335 13.0869 2.43227 14.718 3.25931 16.1612L1.91669 21.0832L6.95273 19.7636C8.34579 20.5216 9.90641 20.919 11.4924 20.9194H11.4971C16.7296 20.9194 20.9923 16.6567 20.9971 11.4194C20.9982 10.1713 20.7524 8.93539 20.2738 7.78275C19.7952 6.63011 19.0932 5.58356 18.2084 4.7034H18.2093ZM11.4924 19.3103C10.0776 19.3108 8.68887 18.9301 7.47215 18.2082L7.18465 18.0357L4.19752 18.8196L4.99581 15.9054L4.80798 15.6044C4.01742 14.347 3.59941 12.8913 3.6024 11.406C3.6024 7.06186 7.1444 3.5189 11.4981 3.5189C12.5351 3.51694 13.5623 3.72027 14.5204 4.11715C15.4785 4.51404 16.3485 5.09663 17.0804 5.83135C17.8148 6.56333 18.3969 7.43347 18.7933 8.39157C19.1897 9.34967 19.3925 10.3768 19.39 11.4136C19.3842 15.7741 15.8422 19.3103 11.4933 19.3103H11.4924ZM15.824 13.4003C15.5873 13.2814 14.422 12.7074 14.2025 12.6259C13.984 12.5493 13.8249 12.5081 13.6697 12.7448C13.5106 12.9805 13.0554 13.5191 12.9184 13.6734C12.7813 13.8325 12.6404 13.8507 12.4037 13.7328C12.167 13.613 11.4023 13.3639 10.4966 12.5541C9.7894 11.9244 9.31598 11.1453 9.17415 10.9096C9.03806 10.6729 9.16169 10.5454 9.27956 10.4266C9.38498 10.3211 9.51627 10.1486 9.63415 10.0126C9.7549 9.87552 9.79419 9.7749 9.87181 9.61677C9.95039 9.45673 9.91302 9.31969 9.85456 9.20181C9.79419 9.08298 9.32077 7.91285 9.12144 7.4404C8.92977 6.97465 8.73427 7.03885 8.58765 7.0331C8.45156 7.02448 8.29152 7.02448 8.13244 7.02448C8.01207 7.02764 7.89366 7.05566 7.78465 7.10679C7.67563 7.15792 7.57837 7.23104 7.49898 7.32156C7.28048 7.55827 6.67098 8.13135 6.67098 9.30244C6.67098 10.4716 7.52198 11.5976 7.64177 11.7558C7.75869 11.9158 9.31119 14.3107 11.6946 15.3399C12.2571 15.5862 12.7008 15.7309 13.0458 15.8411C13.616 16.0232 14.1287 15.9964 14.5389 15.937C14.9941 15.868 15.9419 15.362 16.1422 14.8081C16.3386 14.2522 16.3386 13.7779 16.2783 13.6772C16.2198 13.5776 16.0607 13.5191 15.8231 13.3993L15.824 13.4003Z" fill="#D9D9D9"/>
</svg>
